<svg width="1920" height="1080" viewBox="0 0 1920 1080" fill="none" xmlns="http://www.w3.org/2000/svg">
<g opacity="0.25">
<line y1="599.5" x2="1920" y2="599.5" stroke="#41574C"/>
<line y1="39.5" x2="1920" y2="39.5" stroke="#41574C"/>
<line y1="639.5" x2="1920" y2="639.5" stroke="#41574C"/>
<line y1="79.5" x2="1920" y2="79.5" stroke="#41574C"/>
<line y1="679.5" x2="1920" y2="679.5" stroke="#41574C"/>
<line y1="119.5" x2="1920" y2="119.5" stroke="#41574C"/>
<line y1="719.5" x2="1920" y2="719.5" stroke="#41574C"/>
<line y1="159.5" x2="1920" y2="159.5" stroke="#41574C"/>
<line y1="759.5" x2="1920" y2="759.5" stroke="#41574C"/>
<line y1="199.5" x2="1920" y2="199.5" stroke="#41574C"/>
<line y1="799.5" x2="1920" y2="799.5" stroke="#41574C"/>
<line y1="239.5" x2="1920" y2="239.5" stroke="#41574C"/>
<line y1="839.5" x2="1920" y2="839.5" stroke="#41574C"/>
<line y1="279.5" x2="1920" y2="279.5" stroke="#41574C"/>
<line y1="879.5" x2="1920" y2="879.5" stroke="#41574C"/>
<line y1="919.5" x2="1920" y2="919.5" stroke="#41574C"/>
<line y1="959.5" x2="1920" y2="959.5" stroke="#41574C"/>
<line y1="999.5" x2="1920" y2="999.5" stroke="#41574C"/>
<line y1="1039.5" x2="1920" y2="1039.5" stroke="#41574C"/>
<line y1="1079.5" x2="1920" y2="1079.5" stroke="#41574C"/>
<line y1="319.5" x2="1920" y2="319.5" stroke="#41574C"/>
<line y1="359.5" x2="1920" y2="359.5" stroke="#41574C"/>
<line y1="399.5" x2="1920" y2="399.5" stroke="#41574C"/>
<line y1="439.5" x2="1920" y2="439.5" stroke="#41574C"/>
<line y1="479.5" x2="1920" y2="479.5" stroke="#41574C"/>
<line y1="519.5" x2="1920" y2="519.5" stroke="#41574C"/>
<line y1="559.5" x2="1920" y2="559.5" stroke="#41574C"/>
<line x1="599.5" y1="1080" x2="599.5" y2="2.18556e-08" stroke="#41574C"/>
<line x1="39.5" y1="1080" x2="39.5" y2="2.18556e-08" stroke="#41574C"/>
<line x1="639.5" y1="1080" x2="639.5" y2="2.18556e-08" stroke="#41574C"/>
<line x1="79.5" y1="1080" x2="79.5" y2="2.18556e-08" stroke="#41574C"/>
<line x1="679.5" y1="1080" x2="679.5" y2="2.18556e-08" stroke="#41574C"/>
<line x1="119.5" y1="1080" x2="119.5" y2="2.18556e-08" stroke="#41574C"/>
<line x1="719.5" y1="1080" x2="719.5" y2="-6.10133e-05" stroke="#41574C"/>
<line x1="159.5" y1="1080" x2="159.5" y2="2.18556e-08" stroke="#41574C"/>
<line x1="759.5" y1="1080" x2="759.5" y2="-6.10133e-05" stroke="#41574C"/>
<line x1="199.5" y1="1080" x2="199.5" y2="2.18556e-08" stroke="#41574C"/>
<line x1="799.5" y1="1080" x2="799.5" y2="-6.10133e-05" stroke="#41574C"/>
<line x1="239.5" y1="1080" x2="239.5" y2="2.18556e-08" stroke="#41574C"/>
<line x1="839.5" y1="1080" x2="839.5" y2="-6.10133e-05" stroke="#41574C"/>
<line x1="279.5" y1="1080" x2="279.5" y2="2.18556e-08" stroke="#41574C"/>
<line x1="879.5" y1="1080" x2="879.5" y2="-6.10133e-05" stroke="#41574C"/>
<line x1="919.5" y1="1080" x2="919.5" y2="-6.10133e-05" stroke="#41574C"/>
<line x1="959.5" y1="1080" x2="959.5" y2="-6.10133e-05" stroke="#41574C"/>
<line x1="999.5" y1="1080" x2="999.5" y2="-6.10133e-05" stroke="#41574C"/>
<line x1="1039.5" y1="1080" x2="1039.5" y2="-6.10133e-05" stroke="#41574C"/>
<line x1="1079.5" y1="1080" x2="1079.5" y2="-6.10133e-05" stroke="#41574C"/>
<line x1="319.5" y1="1080" x2="319.5" y2="2.18556e-08" stroke="#41574C"/>
<line x1="359.5" y1="1080" x2="359.5" y2="2.18556e-08" stroke="#41574C"/>
<line x1="399.5" y1="1080" x2="399.5" y2="2.18556e-08" stroke="#41574C"/>
<line x1="439.5" y1="1080" x2="439.5" y2="2.18556e-08" stroke="#41574C"/>
<line x1="479.5" y1="1080" x2="479.5" y2="2.18556e-08" stroke="#41574C"/>
<line x1="519.5" y1="1080" x2="519.5" y2="2.18556e-08" stroke="#41574C"/>
<line x1="559.5" y1="1080" x2="559.5" y2="2.18556e-08" stroke="#41574C"/>
<line x1="1079.5" y1="1080" x2="1079.5" y2="2.18556e-08" stroke="#41574C"/>
<line x1="1679.5" y1="1080" x2="1679.5" y2="2.18556e-08" stroke="#41574C"/>
<line x1="1119.5" y1="1080" x2="1119.5" y2="2.18556e-08" stroke="#41574C"/>
<line x1="1719.5" y1="1080" x2="1719.5" y2="2.18556e-08" stroke="#41574C"/>
<line x1="1159.5" y1="1080" x2="1159.5" y2="2.18556e-08" stroke="#41574C"/>
<line x1="1759.5" y1="1080" x2="1759.5" y2="2.18556e-08" stroke="#41574C"/>
<line x1="1199.5" y1="1080" x2="1199.5" y2="2.18556e-08" stroke="#41574C"/>
<line x1="1799.5" y1="1080" x2="1799.5" y2="-6.10133e-05" stroke="#41574C"/>
<line x1="1239.5" y1="1080" x2="1239.5" y2="2.18556e-08" stroke="#41574C"/>
<line x1="1839.5" y1="1080" x2="1839.5" y2="-6.10133e-05" stroke="#41574C"/>
<line x1="1279.5" y1="1080" x2="1279.5" y2="2.18556e-08" stroke="#41574C"/>
<line x1="1879.5" y1="1080" x2="1879.5" y2="-6.10133e-05" stroke="#41574C"/>
<line x1="1319.5" y1="1080" x2="1319.5" y2="2.18556e-08" stroke="#41574C"/>
<line x1="1919.5" y1="1080" x2="1919.5" y2="-6.10133e-05" stroke="#41574C"/>
<line x1="1359.5" y1="1080" x2="1359.5" y2="2.18556e-08" stroke="#41574C"/>
<line x1="1399.5" y1="1080" x2="1399.5" y2="2.18556e-08" stroke="#41574C"/>
<line x1="1439.5" y1="1080" x2="1439.5" y2="2.18556e-08" stroke="#41574C"/>
<line x1="1479.5" y1="1080" x2="1479.5" y2="2.18556e-08" stroke="#41574C"/>
<line x1="1519.5" y1="1080" x2="1519.5" y2="2.18556e-08" stroke="#41574C"/>
<line x1="1559.5" y1="1080" x2="1559.5" y2="2.18556e-08" stroke="#41574C"/>
<line x1="1599.5" y1="1080" x2="1599.5" y2="2.18556e-08" stroke="#41574C"/>
<line x1="1639.5" y1="1080" x2="1639.5" y2="2.18556e-08" stroke="#41574C"/>
</g>
</svg>
