<svg width="582" height="1078" viewBox="0 0 582 1078" fill="none" xmlns="http://www.w3.org/2000/svg">
<g opacity="0.25">
<line x1="-638.313" y1="615.332" x2="719.332" y2="-742.313" stroke="#41574C"/>
<line x1="-610.029" y1="643.616" x2="747.616" y2="-714.029" stroke="#41574C"/>
<line x1="-581.744" y1="671.9" x2="775.901" y2="-685.745" stroke="#41574C"/>
<line x1="-553.46" y1="700.185" x2="804.185" y2="-657.46" stroke="#41574C"/>
<line x1="-525.176" y1="728.469" x2="832.469" y2="-629.176" stroke="#41574C"/>
<line x1="-525.176" y1="728.469" x2="832.469" y2="-629.176" stroke="#41574C"/>
<line x1="-100.912" y1="1152.73" x2="1256.73" y2="-204.912" stroke="#41574C"/>
<line x1="-496.892" y1="756.753" x2="860.753" y2="-600.892" stroke="#41574C"/>
<line x1="-72.6275" y1="1181.02" x2="1285.02" y2="-176.628" stroke="#41574C"/>
<line x1="-468.607" y1="785.037" x2="889.038" y2="-572.608" stroke="#41574C"/>
<line x1="-44.3433" y1="1209.3" x2="1313.3" y2="-148.344" stroke="#41574C"/>
<line x1="-440.323" y1="813.322" x2="917.322" y2="-544.323" stroke="#41574C"/>
<line x1="-16.0591" y1="1237.59" x2="1341.59" y2="-120.059" stroke="#41574C"/>
<line x1="-412.039" y1="841.606" x2="945.606" y2="-516.039" stroke="#41574C"/>
<line x1="12.2255" y1="1265.87" x2="1369.87" y2="-91.775" stroke="#41574C"/>
<line x1="-383.754" y1="869.89" x2="973.891" y2="-487.755" stroke="#41574C"/>
<line x1="40.5097" y1="1294.15" x2="1398.15" y2="-63.4907" stroke="#41574C"/>
<line x1="-355.47" y1="898.174" x2="1002.17" y2="-459.471" stroke="#41574C"/>
<line x1="68.7939" y1="1322.44" x2="1426.44" y2="-35.2064" stroke="#41574C"/>
<line x1="-327.186" y1="926.459" x2="1030.46" y2="-431.186" stroke="#41574C"/>
<line x1="97.0781" y1="1350.72" x2="1454.72" y2="-6.92226" stroke="#41574C"/>
<line x1="125.362" y1="1379.01" x2="1483.01" y2="21.362" stroke="#41574C"/>
<line x1="153.646" y1="1407.29" x2="1511.29" y2="49.6463" stroke="#41574C"/>
<line x1="181.931" y1="1435.58" x2="1539.58" y2="77.9306" stroke="#41574C"/>
<line x1="210.215" y1="1463.86" x2="1567.86" y2="106.215" stroke="#41574C"/>
<line x1="238.499" y1="1492.14" x2="1596.14" y2="134.499" stroke="#41574C"/>
<line x1="-298.902" y1="954.743" x2="1058.74" y2="-402.902" stroke="#41574C"/>
<line x1="-270.617" y1="983.027" x2="1087.03" y2="-374.618" stroke="#41574C"/>
<line x1="-242.333" y1="1011.31" x2="1115.31" y2="-346.333" stroke="#41574C"/>
<line x1="-214.049" y1="1039.6" x2="1143.6" y2="-318.049" stroke="#41574C"/>
<line x1="-185.765" y1="1067.88" x2="1171.88" y2="-289.765" stroke="#41574C"/>
<line x1="-157.481" y1="1096.16" x2="1200.16" y2="-261.481" stroke="#41574C"/>
<line x1="-129.196" y1="1124.45" x2="1228.45" y2="-233.196" stroke="#41574C"/>
<line x1="238.499" y1="1492.85" x2="-858.069" y2="396.283" stroke="#41574C"/>
<line x1="662.763" y1="1068.59" x2="-433.805" y2="-27.9812" stroke="#41574C"/>
<line x1="266.784" y1="1464.57" x2="-829.785" y2="367.999" stroke="#41574C"/>
<line x1="691.048" y1="1040.3" x2="-405.521" y2="-56.2654" stroke="#41574C"/>
<line x1="295.068" y1="1436.28" x2="-801.501" y2="339.714" stroke="#41574C"/>
<line x1="719.332" y1="1012.02" x2="-377.237" y2="-84.5498" stroke="#41574C"/>
<line x1="323.353" y1="1408" x2="-773.216" y2="311.43" stroke="#41574C"/>
<line x1="747.616" y1="983.734" x2="-348.952" y2="-112.834" stroke="#41574C"/>
<line x1="351.637" y1="1379.71" x2="-744.932" y2="283.146" stroke="#41574C"/>
<line x1="775.901" y1="955.45" x2="-320.668" y2="-141.118" stroke="#41574C"/>
<line x1="379.921" y1="1351.43" x2="-716.648" y2="254.861" stroke="#41574C"/>
<line x1="804.185" y1="927.166" x2="-292.384" y2="-169.403" stroke="#41574C"/>
<line x1="408.205" y1="1323.15" x2="-688.363" y2="226.577" stroke="#41574C"/>
<line x1="832.469" y1="898.882" x2="-264.099" y2="-197.687" stroke="#41574C"/>
<line x1="436.489" y1="1294.86" x2="-660.079" y2="198.293" stroke="#41574C"/>
<line x1="860.753" y1="870.597" x2="-235.815" y2="-225.971" stroke="#41574C"/>
<line x1="889.038" y1="842.313" x2="-207.531" y2="-254.255" stroke="#41574C"/>
<line x1="917.322" y1="814.029" x2="-179.247" y2="-282.54" stroke="#41574C"/>
<line x1="945.606" y1="785.744" x2="-150.962" y2="-310.824" stroke="#41574C"/>
<line x1="973.89" y1="757.46" x2="-122.678" y2="-339.108" stroke="#41574C"/>
<line x1="1002.17" y1="729.176" x2="-94.3938" y2="-367.392" stroke="#41574C"/>
<line x1="464.773" y1="1266.58" x2="-631.795" y2="170.009" stroke="#41574C"/>
<line x1="493.058" y1="1238.29" x2="-603.511" y2="141.724" stroke="#41574C"/>
<line x1="521.342" y1="1210.01" x2="-575.226" y2="113.44" stroke="#41574C"/>
<line x1="549.626" y1="1181.72" x2="-546.942" y2="85.1559" stroke="#41574C"/>
<line x1="577.911" y1="1153.44" x2="-518.658" y2="56.8716" stroke="#41574C"/>
<line x1="606.195" y1="1125.16" x2="-490.374" y2="28.5873" stroke="#41574C"/>
<line x1="634.479" y1="1096.87" x2="-462.089" y2="0.303092" stroke="#41574C"/>
<line x1="1002.17" y1="729.176" x2="-117.763" y2="-390.762" stroke="#41574C"/>
<line x1="1030.46" y1="700.892" x2="-89.479" y2="-419.046" stroke="#41574C"/>
<line x1="1058.74" y1="672.607" x2="-61.1946" y2="-447.33" stroke="#41574C"/>
<line x1="1087.03" y1="644.323" x2="-32.9104" y2="-475.615" stroke="#41574C"/>
<line x1="1115.31" y1="616.039" x2="-4.6262" y2="-503.899" stroke="#41574C"/>
<line x1="1143.6" y1="587.755" x2="23.6582" y2="-532.183" stroke="#41574C"/>
<line x1="1171.88" y1="559.47" x2="51.9424" y2="-560.467" stroke="#41574C"/>
</g>
</svg>
