<svg width="102" height="132" viewBox="0 0 102 132" fill="none" xmlns="http://www.w3.org/2000/svg">
<g clip-path="url(#clip0)">
<path d="M62.2292 92.6437C52.5203 92.6437 50.3279 87.9535 41.1675 87.9535C36.1097 87.9535 33.0803 89.3834 29.7997 90.6641L29.5156 90.5437L11.1819 117.662C7.66229 122.868 11.3922 129.892 17.6763 129.892H84.3965C90.6807 129.892 94.4106 122.868 90.8909 117.662L72.5626 90.5518L71.9859 90.5951C69.3949 91.661 66.6734 92.6437 62.2292 92.6437Z" fill="#E8844E"/>
<path d="M50.8258 44.8637C49.7428 44.8637 48.8574 43.9858 48.8574 42.9028C48.8574 41.8198 49.7279 40.9419 50.8109 40.9419H50.8256C51.9086 40.9419 52.7865 41.8198 52.7865 42.9028C52.7865 43.9858 51.9088 44.8637 50.8258 44.8637Z" fill="white"/>
<path d="M60.2313 109.406C62.9978 109.406 65.2405 107.163 65.2405 104.397C65.2405 101.63 62.9978 99.3876 60.2313 99.3876C57.4649 99.3876 55.2222 101.63 55.2222 104.397C55.2222 107.163 57.4649 109.406 60.2313 109.406Z" fill="#FAB617"/>
<path d="M51.0619 81.6569C54.3071 81.6569 56.9378 79.0262 56.9378 75.781C56.9378 72.5359 54.3071 69.9051 51.0619 69.9051C47.8168 69.9051 45.186 72.5359 45.186 75.781C45.186 79.0262 47.8168 81.6569 51.0619 81.6569Z" fill="#FAB617"/>
<path d="M56.9471 109.825C56.4406 109.825 55.9343 109.63 55.5505 109.241L55.5307 109.221C54.7705 108.449 54.7793 107.208 55.5507 106.447C56.322 105.687 57.5634 105.696 58.3239 106.467L58.3437 106.488C59.1039 107.259 59.0951 108.5 58.3237 109.261C57.9417 109.637 57.4442 109.825 56.9471 109.825Z" fill="white"/>
<path d="M60.9946 111.061C60.0545 111.061 59.2243 110.383 59.0631 109.425C58.8835 108.357 59.6039 107.345 60.6718 107.166C62.01 106.941 62.981 105.79 62.9812 104.43C62.9812 102.9 61.7362 101.655 60.2061 101.655C58.8396 101.655 57.6593 102.671 57.4606 104.02C57.3028 105.091 56.3059 105.831 55.235 105.674C54.1636 105.516 53.4229 104.52 53.5808 103.448C54.0606 100.19 56.909 97.7332 60.2059 97.7332C60.2061 97.7332 60.2059 97.7332 60.2061 97.7332C63.8985 97.7332 66.9029 100.737 66.903 104.43C66.903 107.713 64.5558 110.49 61.3221 111.034C61.2121 111.052 61.1027 111.061 60.9946 111.061Z" fill="white"/>
<path d="M46.9592 82.0714C46.4574 82.0714 45.9554 81.88 45.5727 81.497L45.5321 81.4558C44.7752 80.6813 44.7895 79.4398 45.564 78.6829C46.3384 77.926 47.5801 77.9401 48.337 78.7149L48.346 78.7239C49.1117 79.4896 49.1117 80.7313 48.346 81.4972C47.963 81.88 47.4612 82.0714 46.9592 82.0714Z" fill="white"/>
<path d="M52.0148 83.615C51.0747 83.615 50.2445 82.9369 50.0833 81.9788C49.9037 80.9109 50.6239 79.8994 51.692 79.7198C53.599 79.3992 54.983 77.7597 54.983 75.8215C54.983 73.6417 53.2096 71.8683 51.0296 71.8685C49.0828 71.8685 47.4013 73.3172 47.1184 75.2385C46.9607 76.31 45.9626 77.051 44.8927 76.8928C43.8213 76.7351 43.0806 75.7386 43.2385 74.6671C43.8026 70.8359 47.1521 67.9468 51.0292 67.9468C51.0294 67.9468 51.0292 67.9468 51.0294 67.9468C55.3717 67.9468 58.9047 71.4794 58.9047 75.8217C58.9047 79.6824 56.1445 82.9483 52.3421 83.5877C52.2323 83.6062 52.1226 83.615 52.0148 83.615Z" fill="white"/>
<path d="M39.646 105.393C38.0241 105.393 36.7046 104.073 36.7046 102.452C36.7046 100.83 38.0241 99.5101 39.646 99.5101C41.2678 99.5101 42.5873 100.83 42.5873 102.452C42.5873 104.073 41.2678 105.393 39.646 105.393Z" fill="white"/>
<path d="M48.0805 62.0445C46.4587 62.0445 45.1392 60.725 45.1392 59.1031C45.1392 57.4813 46.4587 56.1618 48.0805 56.1618C49.7024 56.1618 51.0219 57.4813 51.0219 59.1031C51.0219 60.725 49.7024 62.0445 48.0805 62.0445Z" fill="white"/>
<path d="M34.4821 121.216C36.7924 121.216 38.6653 119.343 38.6653 117.033C38.6653 114.722 36.7924 112.849 34.4821 112.849C32.1717 112.849 30.2988 114.722 30.2988 117.033C30.2988 119.343 32.1717 121.216 34.4821 121.216Z" fill="#FAB617"/>
<path d="M34.482 123.177C31.0942 123.177 28.3379 120.421 28.3379 117.033C28.3379 113.645 31.0942 110.889 34.482 110.889C37.8699 110.889 40.6262 113.645 40.6262 117.033C40.6262 120.421 37.8699 123.177 34.482 123.177ZM34.482 114.811C33.2565 114.811 32.2597 115.807 32.2597 117.033C32.2597 118.258 33.2567 119.255 34.482 119.255C35.7074 119.255 36.7043 118.258 36.7043 117.033C36.7043 115.807 35.7076 114.811 34.482 114.811Z" fill="white"/>
<path d="M92.5156 116.564L64.7629 75.5136V44.8637H65.1175C68.8146 44.8637 71.8222 41.8561 71.8222 38.1591C71.8222 34.462 68.8146 31.4544 65.1175 31.4544L36.9555 31.4544C33.2584 31.4544 30.2508 34.462 30.2508 38.1591C30.2508 41.8561 33.2584 44.8637 36.9555 44.8637H37.3101V75.5136L9.55759 116.564C7.49118 119.621 7.29057 123.391 9.02089 126.649C10.7512 129.908 13.9869 131.853 17.6764 131.853H84.3966C88.0861 131.853 91.3218 129.908 93.0521 126.649C94.7824 123.391 94.5818 119.621 92.5156 116.564ZM40.8954 77.2126C41.1146 76.8882 41.2319 76.5059 41.2319 76.1143V44.8637H43.3244C44.4074 44.8637 45.2853 43.9858 45.2853 42.9028C45.2853 41.8198 44.4074 40.9419 43.3244 40.9419H36.9555C35.4209 40.9419 34.1726 39.6936 34.1726 38.1589C34.1726 36.6245 35.4209 35.3762 36.9555 35.3762H65.1175C66.6521 35.3762 67.9004 36.6247 67.9004 38.1591C67.9004 39.6936 66.6521 40.9419 65.1175 40.9419H58.8156C57.7326 40.9419 56.8547 41.8198 56.8547 42.9028C56.8547 43.9858 57.7326 44.8637 58.8156 44.8637H60.8411V76.1143C60.8411 76.5057 60.9583 76.8882 61.1776 77.2126L69.465 89.4713C67.4913 90.1762 65.3414 90.6831 62.2292 90.6831C57.685 90.6831 54.972 89.5883 52.0997 88.4294C49.1313 87.2317 46.0618 85.993 41.1676 85.993C38.4337 85.993 36.2498 86.3789 34.3267 86.9287L40.8954 77.2126ZM89.5883 124.81C88.5504 126.765 86.6097 127.932 84.3966 127.932H17.6764C15.4633 127.932 13.5226 126.765 12.4847 124.81C11.4467 122.856 11.5671 120.594 12.8064 118.761L30.5859 92.4621C30.8937 92.3415 31.2 92.2199 31.5057 92.0983C34.3273 90.9753 36.9924 89.9146 41.1678 89.9146C45.3006 89.9146 47.8904 90.9598 50.6323 92.0661C53.7253 93.3143 56.9236 94.6048 62.2294 94.6048C66.434 94.6048 69.2009 93.7974 71.7246 92.8135L89.2665 118.761C90.5058 120.594 90.6262 122.856 89.5883 124.81Z" fill="white"/>
</g>
<path d="M62.6145 8.03653C61.8323 7.25434 60.5642 7.25434 59.782 8.03653C58.9998 8.81873 58.9998 10.0869 59.782 10.8691C60.5642 11.6513 61.8323 11.6513 62.6145 10.8691C63.3967 10.0869 63.3967 8.81873 62.6145 8.03653Z" fill="#FFC502"/>
<path d="M53.6451 9.70452C52.5327 8.59207 50.729 8.59207 49.6166 9.70452C48.5041 10.817 48.5041 12.6206 49.6166 13.7331C50.729 14.8455 52.5327 14.8455 53.6451 13.7331C54.7576 12.6206 54.7576 10.817 53.6451 9.70452Z" fill="#FFC502"/>
<path d="M52.7485 19.6657C51.9923 18.9095 50.7664 18.9095 50.0103 19.6657C49.2542 20.4218 49.2542 21.6477 50.0103 22.4038C50.7664 23.1599 51.9923 23.1599 52.7485 22.4038C53.5046 21.6477 53.5046 20.4218 52.7485 19.6657Z" fill="#FFC502"/>
<path d="M63.5095 11.7836C64.8539 10.4391 64.8539 8.25165 63.5095 6.9072C62.165 5.56274 59.9775 5.56274 58.6331 6.9072C57.2886 8.25165 57.2886 10.4391 58.6331 11.7836C59.9775 13.128 62.165 13.128 63.5095 11.7836ZM60.5836 8.85776C60.8526 8.58884 61.29 8.58884 61.5589 8.85776C61.8278 9.12667 61.8278 9.56412 61.5589 9.83303C61.29 10.102 60.8526 10.102 60.5836 9.83303C60.3147 9.56412 60.3147 9.12667 60.5836 8.85776Z" fill="white"/>
<path d="M54.1629 8.93871C52.5944 7.37021 50.0423 7.37021 48.4738 8.93871C46.9053 10.5072 46.9053 13.0593 48.4738 14.6278C50.0423 16.1963 52.5944 16.1963 54.1629 14.6278C55.7314 13.0593 55.7314 10.5072 54.1629 8.93871ZM50.2895 12.8122C49.7221 12.2448 49.7221 11.3217 50.2895 10.7544C50.8568 10.187 51.7799 10.187 52.3472 10.7544C52.9146 11.3217 52.9146 12.2448 52.3472 12.8122C51.7799 13.3795 50.8568 13.3795 50.2895 12.8122Z" fill="white"/>
<path d="M53.7566 18.2851C52.4121 16.9407 50.2246 16.9407 48.8802 18.2851C47.5357 19.6295 47.5357 21.8171 48.8802 23.1615C50.2246 24.5059 52.4121 24.5059 53.7566 23.1615C55.1008 21.8172 55.101 19.6295 53.7566 18.2851ZM50.8705 21.1711C50.6236 20.9242 50.6236 20.5224 50.8705 20.2755C51.1175 20.0285 51.5193 20.0285 51.7662 20.2755C52.0131 20.5224 52.0131 20.9242 51.7662 21.1711C51.5193 21.4181 51.1175 21.4181 50.8705 21.1711Z" fill="white"/>
<defs>
<clipPath id="clip0">
<rect x="0.836914" y="31.4544" width="100.399" height="100.399" fill="white"/>
</clipPath>
</defs>
</svg>
