<svg width="215" height="63" viewBox="0 0 215 63" fill="none" xmlns="http://www.w3.org/2000/svg">
<path d="M65.6 39.36L65.16 41.16H69.96L69.52 39.36C69.2 38.1067 68.88 36.7467 68.56 35.28C68.24 33.8133 67.92 32.4267 67.6 31.12H67.44C67.1467 32.4533 66.84 33.8533 66.52 35.32C66.2267 36.76 65.92 38.1067 65.6 39.36ZM55.6 52L63.52 26H71.84L79.76 52H72.48L71.2 46.48H63.92L62.64 52H55.6ZM87.8394 52.48C86.666 52.48 85.6794 52.3067 84.8794 51.96C84.106 51.5867 83.4794 51.0667 82.9994 50.4C82.5194 49.7333 82.1727 48.9467 81.9594 48.04C81.7727 47.1067 81.6794 46.08 81.6794 44.96V24.16H88.5594V45.2C88.5594 45.8933 88.6794 46.36 88.9194 46.6C89.186 46.84 89.4394 46.96 89.6794 46.96C89.8127 46.96 89.9194 46.96 89.9994 46.96C90.106 46.96 90.2394 46.9333 90.3994 46.88L91.1994 51.92C90.826 52.08 90.3594 52.2133 89.7994 52.32C89.266 52.4267 88.6127 52.48 87.8394 52.48ZM100.873 60.24C99.7268 60.24 98.6468 60.1467 97.6334 59.96C96.6201 59.8 95.7268 59.52 94.9534 59.12C94.2068 58.72 93.6068 58.2 93.1534 57.56C92.7001 56.9467 92.4734 56.1867 92.4734 55.28C92.4734 53.7067 93.4068 52.4267 95.2734 51.44V51.28C94.7401 50.9067 94.3001 50.4533 93.9534 49.92C93.6068 49.3867 93.4334 48.6933 93.4334 47.84C93.4334 47.1467 93.6334 46.4667 94.0334 45.8C94.4334 45.1333 94.9801 44.56 95.6734 44.08V43.92C94.9534 43.44 94.3134 42.76 93.7534 41.88C93.2201 41 92.9534 39.9733 92.9534 38.8C92.9534 37.5733 93.1934 36.5067 93.6734 35.6C94.1534 34.6667 94.7934 33.9067 95.5934 33.32C96.3934 32.7067 97.3001 32.2533 98.3134 31.96C99.3534 31.6667 100.42 31.52 101.513 31.52C102.687 31.52 103.753 31.68 104.713 32H112.153V36.96H109.273C109.353 37.2 109.42 37.5067 109.473 37.88C109.553 38.2533 109.593 38.64 109.593 39.04C109.593 40.2133 109.38 41.2267 108.953 42.08C108.527 42.9067 107.953 43.5867 107.233 44.12C106.513 44.6533 105.66 45.0533 104.673 45.32C103.687 45.56 102.633 45.68 101.513 45.68C100.847 45.68 100.1 45.5867 99.2734 45.4C99.0601 45.5867 98.9268 45.76 98.8734 45.92C98.8201 46.0533 98.7934 46.2667 98.7934 46.56C98.7934 47.0133 99.0068 47.3333 99.4334 47.52C99.8601 47.68 100.58 47.76 101.593 47.76H104.593C107.1 47.76 109.033 48.1733 110.393 49C111.78 49.8 112.473 51.12 112.473 52.96C112.473 54.0533 112.193 55.04 111.633 55.92C111.1 56.8267 110.327 57.6 109.313 58.24C108.327 58.88 107.113 59.3733 105.673 59.72C104.26 60.0667 102.66 60.24 100.873 60.24ZM101.513 41.6C102.153 41.6 102.673 41.3733 103.073 40.92C103.473 40.4667 103.673 39.76 103.673 38.8C103.673 37.8667 103.473 37.1867 103.073 36.76C102.673 36.3067 102.153 36.08 101.513 36.08C100.873 36.08 100.353 36.3067 99.9534 36.76C99.5534 37.1867 99.3534 37.8667 99.3534 38.8C99.3534 39.76 99.5534 40.4667 99.9534 40.92C100.353 41.3733 100.873 41.6 101.513 41.6ZM101.993 56C103.113 56 104.047 55.8267 104.793 55.48C105.54 55.16 105.913 54.72 105.913 54.16C105.913 53.6267 105.673 53.2933 105.193 53.16C104.74 53.0267 104.087 52.96 103.233 52.96H101.673C100.873 52.96 100.26 52.9333 99.8334 52.88C99.4334 52.8533 99.0868 52.8 98.7934 52.72C98.5534 52.96 98.3668 53.1867 98.2334 53.4C98.1268 53.6133 98.0734 53.8667 98.0734 54.16C98.0734 54.8 98.4334 55.2667 99.1534 55.56C99.8734 55.8533 100.82 56 101.993 56ZM123.528 52.48C122.248 52.48 121.008 52.2533 119.808 51.8C118.608 51.32 117.541 50.64 116.608 49.76C115.701 48.8533 114.968 47.7467 114.408 46.44C113.875 45.1333 113.608 43.6533 113.608 42C113.608 40.3467 113.875 38.8667 114.408 37.56C114.968 36.2533 115.701 35.16 116.608 34.28C117.541 33.3733 118.608 32.6933 119.808 32.24C121.008 31.76 122.248 31.52 123.528 31.52C124.808 31.52 126.035 31.76 127.208 32.24C128.408 32.6933 129.461 33.3733 130.368 34.28C131.301 35.16 132.048 36.2533 132.608 37.56C133.168 38.8667 133.448 40.3467 133.448 42C133.448 43.6533 133.168 45.1333 132.608 46.44C132.048 47.7467 131.301 48.8533 130.368 49.76C129.461 50.64 128.408 51.32 127.208 51.8C126.035 52.2533 124.808 52.48 123.528 52.48ZM123.528 46.96C124.568 46.96 125.301 46.52 125.728 45.64C126.181 44.7333 126.408 43.52 126.408 42C126.408 40.48 126.181 39.28 125.728 38.4C125.301 37.4933 124.568 37.04 123.528 37.04C122.488 37.04 121.741 37.4933 121.288 38.4C120.861 39.28 120.648 40.48 120.648 42C120.648 43.52 120.861 44.7333 121.288 45.64C121.741 46.52 122.488 46.96 123.528 46.96ZM143.191 52.48C142.018 52.48 141.031 52.3067 140.231 51.96C139.458 51.5867 138.831 51.0667 138.351 50.4C137.871 49.7333 137.524 48.9467 137.311 48.04C137.124 47.1067 137.031 46.08 137.031 44.96V24.16H143.911V45.2C143.911 45.8933 144.031 46.36 144.271 46.6C144.538 46.84 144.791 46.96 145.031 46.96C145.164 46.96 145.271 46.96 145.351 46.96C145.458 46.96 145.591 46.9333 145.751 46.88L146.551 51.92C146.178 52.08 145.711 52.2133 145.151 52.32C144.618 52.4267 143.964 52.48 143.191 52.48ZM148.945 52V32H155.825V52H148.945ZM152.385 29.52C151.265 29.52 150.345 29.2 149.625 28.56C148.905 27.92 148.545 27.0933 148.545 26.08C148.545 25.0667 148.905 24.24 149.625 23.6C150.345 22.96 151.265 22.64 152.385 22.64C153.505 22.64 154.425 22.96 155.145 23.6C155.865 24.24 156.225 25.0667 156.225 26.08C156.225 27.0933 155.865 27.92 155.145 28.56C154.425 29.2 153.505 29.52 152.385 29.52ZM159.748 52V48.32L167.348 37.36H160.628V32H175.908V35.68L168.308 46.64H176.148V52H159.748ZM188.303 52.48C186.836 52.48 185.476 52.2533 184.223 51.8C182.97 51.32 181.876 50.64 180.943 49.76C180.036 48.8533 179.316 47.7467 178.783 46.44C178.25 45.1333 177.983 43.6533 177.983 42C177.983 40.3733 178.25 38.92 178.783 37.64C179.343 36.3333 180.063 35.2267 180.943 34.32C181.85 33.4133 182.876 32.72 184.023 32.24C185.17 31.76 186.356 31.52 187.583 31.52C189.05 31.52 190.33 31.7733 191.423 32.28C192.516 32.7867 193.423 33.48 194.143 34.36C194.863 35.24 195.396 36.2667 195.743 37.44C196.116 38.6133 196.303 39.8667 196.303 41.2C196.303 41.8133 196.263 42.3867 196.183 42.92C196.13 43.4533 196.076 43.84 196.023 44.08H184.623C184.943 45.28 185.516 46.12 186.343 46.6C187.17 47.0533 188.143 47.28 189.263 47.28C189.956 47.28 190.623 47.1867 191.263 47C191.93 46.7867 192.623 46.48 193.343 46.08L195.583 50.16C194.49 50.9333 193.276 51.52 191.943 51.92C190.636 52.2933 189.423 52.48 188.303 52.48ZM184.543 39.6H190.463C190.463 38.8267 190.263 38.16 189.863 37.6C189.49 37.0133 188.783 36.72 187.743 36.72C186.97 36.72 186.29 36.9467 185.703 37.4C185.143 37.8533 184.756 38.5867 184.543 39.6ZM200.078 52V32H205.678L206.158 35.44H206.318C207.064 34.08 207.944 33.0933 208.958 32.48C209.998 31.84 211.011 31.52 211.998 31.52C212.611 31.52 213.104 31.56 213.478 31.64C213.851 31.6933 214.184 31.7867 214.478 31.92L213.358 37.84C212.984 37.76 212.624 37.6933 212.278 37.64C211.958 37.56 211.571 37.52 211.118 37.52C210.398 37.52 209.638 37.7733 208.838 38.28C208.064 38.76 207.438 39.6267 206.958 40.88V52H200.078Z" fill="url(#paint0_linear)"/>
<g clip-path="url(#clip0)">
<path d="M24.4346 37.6374C22.0876 35.2905 22.6914 33.6268 20.4771 31.4125C19.2545 30.1899 18.1765 29.8032 17.0739 29.3198L17.0344 29.222L6.04721 31.3456C3.93796 31.7533 3.14171 34.3527 4.66078 35.8718L20.789 52C22.3081 53.5191 24.9075 52.7228 25.3152 50.6136L27.4381 39.6297L27.2882 39.5007C26.4043 39.1321 25.5089 38.7117 24.4346 37.6374Z" fill="#E8844E"/>
<path d="M33.228 23.3311C32.9662 23.0693 32.9644 22.6431 33.2262 22.3813C33.488 22.1195 33.9106 22.1177 34.1724 22.3795L34.176 22.3831C34.4378 22.6449 34.4378 23.0693 34.176 23.3311C33.9142 23.5929 33.4898 23.5929 33.228 23.3311Z" fill="white"/>
<path d="M19.9 41.2063C20.5687 41.875 21.653 41.875 22.3217 41.2063C22.9904 40.5376 22.9904 39.4533 22.3217 38.7846C21.653 38.1159 20.5687 38.1158 19.9 38.7846C19.2312 39.4533 19.2313 40.5376 19.9 41.2063Z" fill="#FAB617"/>
<path d="M24.3911 32.2821C25.1756 33.0666 26.4474 33.0666 27.2319 32.2821C28.0164 31.4977 28.0164 30.2258 27.2319 29.4414C26.4474 28.6569 25.1756 28.6569 24.3911 29.4414C23.6067 30.2258 23.6067 31.4977 24.3911 32.2821Z" fill="#FAB617"/>
<path d="M19.0049 40.5139C18.8824 40.3914 18.8072 40.2219 18.8085 40.035L18.8086 40.0254C18.8113 39.6552 19.1136 39.3572 19.4838 39.3599C19.8541 39.3625 20.152 39.6647 20.1493 40.035L20.1492 40.0447C20.1466 40.4149 19.8443 40.7129 19.4741 40.7102C19.2907 40.7089 19.125 40.634 19.0049 40.5139Z" fill="white"/>
<path d="M19.6844 41.7911C19.4572 41.5639 19.4204 41.1993 19.6131 40.9287C19.8278 40.6271 20.2464 40.5568 20.548 40.7715C20.9258 41.0406 21.4388 40.9971 21.7677 40.6683C22.1375 40.2985 22.1374 39.6966 21.7676 39.3268C21.4372 38.9964 20.9062 38.9568 20.5323 39.2348C20.2351 39.4556 19.8152 39.3935 19.5944 39.0966C19.3735 38.7995 19.4353 38.3796 19.7325 38.1588C20.6361 37.4872 21.9186 37.5818 22.7155 38.3787C22.7156 38.3788 22.7155 38.3787 22.7156 38.3788C23.6081 39.2714 23.6082 40.7237 22.7156 41.6164C21.922 42.41 20.6833 42.514 19.7702 41.8637C19.7391 41.8415 19.7106 41.8172 19.6844 41.7911Z" fill="white"/>
<path d="M23.2993 31.3906C23.178 31.2693 23.1029 31.1017 23.103 30.9166L23.1031 30.8968C23.1074 30.5266 23.4109 30.23 23.7811 30.2342C24.1513 30.2384 24.448 30.542 24.4437 30.9123L24.4437 30.9166C24.4437 31.2868 24.1436 31.587 23.7733 31.587C23.5882 31.587 23.4207 31.5119 23.2993 31.3906Z" fill="white"/>
<path d="M24.1483 32.9858C23.921 32.7586 23.8842 32.394 24.0769 32.1234C24.2916 31.8218 24.7102 31.7515 25.0118 31.9662C25.5503 32.3497 26.2812 32.2879 26.7497 31.8194C27.2766 31.2925 27.2766 30.4351 26.7496 29.9082C26.279 29.4376 25.5223 29.3814 24.9895 29.7774C24.6924 29.9983 24.272 29.9361 24.0516 29.6393C23.8307 29.3422 23.8926 28.9222 24.1897 28.7014C25.2522 27.9116 26.7602 28.0229 27.6975 28.9602C27.6975 28.9602 27.6975 28.9602 27.6975 28.9602C28.7472 30.0098 28.7473 31.7178 27.6976 32.7675C26.7644 33.7007 25.3077 33.8229 24.234 33.0584C24.203 33.0363 24.1743 33.0119 24.1483 32.9858Z" fill="white"/>
<path d="M15.894 35.2603C15.5019 34.8682 15.5019 34.2303 15.894 33.8382C16.286 33.4462 16.9239 33.4462 17.316 33.8382C17.7081 34.2303 17.7081 34.8682 17.316 35.2603C16.9239 35.6523 16.286 35.6523 15.894 35.2603Z" fill="white"/>
<path d="M28.4115 26.8207C28.0195 26.4286 28.0195 25.7907 28.4115 25.3986C28.8036 25.0066 29.4415 25.0066 29.8336 25.3986C30.2256 25.7907 30.2256 26.4286 29.8336 26.8207C29.4415 27.2127 28.8036 27.2127 28.4115 26.8207Z" fill="white"/>
<path d="M10.8208 37.8369C11.3793 38.3954 12.2848 38.3954 12.8432 37.8369C13.4017 37.2785 13.4017 36.373 12.8432 35.8145C12.2848 35.2561 11.3793 35.2561 10.8208 35.8145C10.2623 36.373 10.2624 37.2785 10.8208 37.8369Z" fill="#FAB617"/>
<path d="M10.3468 38.311C9.52786 37.4921 9.52787 36.1595 10.3468 35.3406C11.1658 34.5216 12.4983 34.5216 13.3172 35.3406C14.1362 36.1595 14.1362 37.4921 13.3172 38.311C12.4983 39.1299 11.1658 39.1299 10.3468 38.311ZM12.3693 36.2885C12.073 35.9923 11.5911 35.9923 11.2949 36.2885C10.9987 36.5847 10.9987 37.0667 11.2949 37.3629C11.5911 37.6591 12.0731 37.6591 12.3693 37.3629C12.6655 37.0667 12.6655 36.5848 12.3693 36.2885Z" fill="white"/>
<path d="M25.9736 50.7408L29.1881 34.109L36.5971 26.7001L36.6828 26.7858C37.5765 27.6795 39.0306 27.6795 39.9242 26.7858C40.8179 25.8921 40.8179 24.438 39.9242 23.5443L33.1167 16.7368C32.223 15.8431 30.7689 15.8431 29.8752 16.7368C28.9816 17.6304 28.9816 19.0845 29.8753 19.9782L29.961 20.0639L22.552 27.4729L5.92024 30.6875C4.68193 30.9268 3.72206 31.7897 3.35267 32.9956C2.98327 34.2015 3.29517 35.454 4.18702 36.3458L20.3152 52.474C21.2071 53.3659 22.4595 53.6778 23.6654 53.3084C24.8714 52.939 25.7343 51.9791 25.9736 50.7408ZM23.008 28.7503C23.1394 28.7248 23.2602 28.6608 23.3548 28.5661L30.909 21.0119L31.4148 21.5177C31.6766 21.7795 32.101 21.7795 32.3628 21.5177C32.6246 21.256 32.6246 20.8315 32.3628 20.5697L30.8233 19.0302C30.4523 18.6592 30.4523 18.0557 30.8233 17.6848C31.1942 17.3138 31.7977 17.3138 32.1687 17.6848L38.9762 24.4924C39.3472 24.8633 39.3471 25.4669 38.9762 25.8378C38.6053 26.2087 38.0018 26.2087 37.6308 25.8377L36.1075 24.3144C35.8457 24.0526 35.4213 24.0526 35.1595 24.3144C34.8977 24.5762 34.8977 25.0006 35.1595 25.2624L35.6491 25.752L28.0949 33.3062C28.0003 33.4008 27.9362 33.5216 27.9108 33.653L26.9508 38.6196C26.3033 38.3129 25.6611 37.9158 24.9088 37.1635C23.8103 36.065 23.4191 35.1446 23.005 34.1701C22.5769 33.163 22.1344 32.1216 20.9513 30.9385C20.2904 30.2777 19.6693 29.843 19.0715 29.5111L23.008 28.7503ZM23.2728 52.0264C22.5494 52.248 21.7982 52.061 21.2633 51.526L5.13504 35.3978C4.60007 34.8628 4.41303 34.1116 4.63458 33.3883C4.85613 32.6649 5.43192 32.1473 6.17464 32.0038L16.8296 29.9444C16.9332 29.9896 17.0366 30.0343 17.1399 30.0788C18.0934 30.4894 18.9941 30.8772 20.0034 31.8865C21.0024 32.8856 21.3758 33.7642 21.7712 34.6945C22.2171 35.7439 22.6783 36.8289 23.9608 38.1115C24.9772 39.1279 25.8412 39.6015 26.6891 39.9737L24.6573 50.4864C24.5136 51.2292 23.9961 51.8049 23.2728 52.0264Z" fill="white"/>
</g>
<path d="M44.9803 17.2789C44.9803 16.9008 44.6737 16.5942 44.2956 16.5942C43.9174 16.5942 43.6108 16.9008 43.6108 17.2789C43.6108 17.6571 43.9174 17.9636 44.2956 17.9636C44.6737 17.9636 44.9803 17.6571 44.9803 17.2789Z" fill="#FFC502"/>
<path d="M42.4091 15.5139C42.4091 14.9761 41.9731 14.5401 41.4352 14.5401C40.8974 14.5401 40.4614 14.9761 40.4614 15.5139C40.4614 16.0517 40.8974 16.4877 41.4352 16.4877C41.9731 16.4877 42.4091 16.0517 42.4091 15.5139Z" fill="#FFC502"/>
<path d="M39.7842 17.705C39.7842 17.3394 39.4879 17.0431 39.1223 17.0431C38.7568 17.0431 38.4604 17.3394 38.4604 17.705C38.4604 18.0705 38.7568 18.3669 39.1223 18.3669C39.4879 18.3669 39.7842 18.0705 39.7842 17.705Z" fill="#FFC502"/>
<path d="M44.2906 18.4008C44.9406 18.4008 45.4693 17.872 45.4693 17.222C45.4693 16.5721 44.9406 16.0433 44.2906 16.0433C43.6406 16.0433 43.1118 16.5721 43.1118 17.222C43.1118 17.872 43.6406 18.4008 44.2906 18.4008ZM44.2906 16.9863C44.4206 16.9863 44.5263 17.092 44.5263 17.222C44.5263 17.352 44.4206 17.4578 44.2906 17.4578C44.1606 17.4578 44.0548 17.352 44.0548 17.222C44.0548 17.092 44.1606 16.9863 44.2906 16.9863Z" fill="white"/>
<path d="M42.7187 15.4539C42.7187 14.6956 42.1018 14.0786 41.3435 14.0786C40.5852 14.0786 39.9683 14.6956 39.9683 15.4539C39.9683 16.2122 40.5852 16.8291 41.3435 16.8291C42.1018 16.8291 42.7187 16.2122 42.7187 15.4539ZM40.8461 15.4539C40.8461 15.1796 41.0692 14.9565 41.3435 14.9565C41.6178 14.9565 41.8409 15.1796 41.8409 15.4539C41.8409 15.7282 41.6178 15.9513 41.3435 15.9513C41.0692 15.9513 40.8461 15.7282 40.8461 15.4539Z" fill="white"/>
<path d="M40.3614 17.615C40.3614 16.965 39.8326 16.4362 39.1827 16.4362C38.5327 16.4362 38.0039 16.965 38.0039 17.615C38.0039 18.2649 38.5327 18.7937 39.1827 18.7937C39.8326 18.7937 40.3614 18.2649 40.3614 17.615ZM38.9662 17.615C38.9662 17.4956 39.0633 17.3985 39.1827 17.3985C39.3021 17.3985 39.3992 17.4956 39.3992 17.615C39.3992 17.7344 39.3021 17.8315 39.1827 17.8315C39.0633 17.8315 38.9662 17.7344 38.9662 17.615Z" fill="white"/>
<defs>
<linearGradient id="paint0_linear" x1="61.5" y1="38" x2="200" y2="52" gradientUnits="userSpaceOnUse">
<stop stop-color="#FF791A"/>
<stop offset="1" stop-color="#006655"/>
</linearGradient>
<clipPath id="clip0">
<rect x="24.3857" y="8.00589" width="34.322" height="34.322" transform="rotate(45 24.3857 8.00589)" fill="white"/>
</clipPath>
</defs>
</svg>
