<svg width="32" height="32" viewBox="0 0 32 32" fill="none" xmlns="http://www.w3.org/2000/svg">
<path fill-rule="evenodd" clip-rule="evenodd" d="M26.6666 11.5866V5.33332H20.4133L15.9999 0.919983L11.5866 5.33332H5.33326V11.5866L0.919922 16L5.33326 20.4133V26.6666H11.5866L15.9999 31.08L20.4133 26.6666H26.6666V20.4133L31.0799 16L26.6666 11.5866ZM23.9999 19.3066V24H19.3066L15.9999 27.3066L12.6933 24H7.99995V19.3066L4.69328 16L7.99995 12.6933V7.99997H12.6933L15.9999 4.6933L19.3066 7.99997H23.9999V12.6933L27.3066 16L23.9999 19.3066ZM11.7227 11.8V21.3334H14.128V18.576C14.128 17.9894 14.0889 17.3734 14.0107 16.728C13.9324 16.0827 13.864 15.4863 13.8053 14.9387H13.864L14.7733 17.0654L16.8853 21.3334H19.4667V11.8H17.0613V14.5574C17.0613 14.8507 17.0711 15.1587 17.0907 15.4814C17.12 15.7943 17.1493 16.112 17.1787 16.4347C17.208 16.7476 17.2422 17.0556 17.2813 17.3587C17.3204 17.6618 17.3547 17.9405 17.384 18.1947H17.3253L16.416 16.0534L14.304 11.8H11.7227Z" fill="#FF791A"/>
</svg>
