<svg width="26" height="29" viewBox="0 0 26 29" fill="none" xmlns="http://www.w3.org/2000/svg">
<path fill-rule="evenodd" clip-rule="evenodd" d="M23.003 14.5385C23.003 15.0034 22.963 15.441 22.9096 15.8786L25.723 18.135C25.9763 18.3402 26.043 18.7094 25.883 19.0103L23.2163 23.7419C23.0963 23.9607 22.8696 24.0838 22.643 24.0838C22.563 24.0838 22.483 24.0701 22.403 24.0427L19.083 22.6752C18.3896 23.2086 17.643 23.6735 16.8296 24.0154L16.323 27.6393C16.283 27.9675 16.003 28.2137 15.6696 28.2137H10.3363C10.003 28.2137 9.72296 27.9675 9.68296 27.6393L9.17629 24.0154C8.36296 23.6735 7.61629 23.2222 6.92296 22.6752L3.60296 24.0427C3.53629 24.0701 3.45629 24.0838 3.37629 24.0838C3.13629 24.0838 2.90963 23.9607 2.78963 23.7419L0.12296 19.0103C-0.0370403 18.7094 0.0296264 18.3402 0.28296 18.135L3.09629 15.8786C3.04296 15.441 3.00296 14.9897 3.00296 14.5385C3.00296 14.0872 3.04296 13.6359 3.09629 13.1983L0.28296 10.9419C0.0296264 10.7368 -0.0503736 10.3675 0.12296 10.0667L2.78963 5.33505C2.90963 5.11624 3.13629 4.99317 3.36296 4.99317C3.44296 4.99317 3.52296 5.00684 3.60296 5.03419L6.92296 6.40171C7.61629 5.86838 8.36296 5.40342 9.17629 5.06154L9.68296 1.43761C9.72296 1.1094 10.003 0.863251 10.3363 0.863251H15.6696C16.003 0.863251 16.283 1.1094 16.323 1.43761L16.8296 5.06154C17.643 5.40342 18.3896 5.8547 19.083 6.40171L22.403 5.03419C22.4696 5.00684 22.5496 4.99317 22.6296 4.99317C22.8696 4.99317 23.0963 5.11624 23.2163 5.33505L25.883 10.0667C26.043 10.3675 25.9763 10.7368 25.723 10.9419L22.9096 13.1983C22.963 13.6359 23.003 14.0735 23.003 14.5385ZM20.3363 14.5385C20.3363 14.2513 20.323 13.9641 20.2696 13.5402L20.083 11.9949L21.2696 11.0376L22.6963 9.87522L21.763 8.22052L20.0696 8.91795L18.6563 9.50599L17.443 8.54872C16.9096 8.13846 16.3763 7.82393 15.803 7.57778L14.3896 6.98975L14.1763 5.44445L13.923 3.59829H12.0696L11.803 5.44445L11.5896 6.98975L10.1763 7.57778C9.62963 7.81026 9.08296 8.13846 8.50963 8.57607L7.30963 9.50599L5.92296 8.93163L4.22963 8.23419L3.29629 9.88889L4.73629 11.0376L5.92296 11.9949L5.73629 13.5402C5.69629 13.9504 5.66963 14.265 5.66963 14.5385C5.66963 14.812 5.69629 15.1265 5.73629 15.5504L5.92296 17.0957L4.73629 18.053L3.29629 19.2017L4.22963 20.8564L5.92296 20.159L7.33629 19.5709L8.54963 20.5282C9.08296 20.9385 9.61629 21.253 10.1896 21.4991L11.603 22.0872L11.8163 23.6325L12.0696 25.4786H13.9363L14.203 23.6325L14.4163 22.0872L15.8296 21.4991C16.3763 21.2667 16.923 20.9385 17.4963 20.5009L18.6963 19.5709L20.083 20.1453L21.7763 20.8427L22.7096 19.188L21.2696 18.0393L20.083 17.0821L20.2696 15.5368C20.3096 15.1265 20.3363 14.8256 20.3363 14.5385ZM13.003 9.06838C10.0563 9.06838 7.66963 11.5162 7.66963 14.5385C7.66963 17.5607 10.0563 20.0086 13.003 20.0086C15.9496 20.0086 18.3363 17.5607 18.3363 14.5385C18.3363 11.5162 15.9496 9.06838 13.003 9.06838ZM10.3363 14.5385C10.3363 16.0427 11.5363 17.2735 13.003 17.2735C14.4696 17.2735 15.6696 16.0427 15.6696 14.5385C15.6696 13.0342 14.4696 11.8034 13.003 11.8034C11.5363 11.8034 10.3363 13.0342 10.3363 14.5385Z" fill="white"/>
</svg>
